<?xml version="1.0" encoding="utf-8"?>
<!-- Generator: Adobe Illustrator 19.0.0, SVG Export Plug-In . SVG Version: 6.00 Build 0)  -->
<svg version="1.1" id="Layer_1" xmlns="http://www.w3.org/2000/svg" xmlns:xlink="http://www.w3.org/1999/xlink" x="0px" y="0px"
	 viewBox="-51 140.4 508.5 513.6" style="enable-background:new -51 140.4 508.5 513.6;" xml:space="preserve">
<style type="text/css">
	.st0{fill:#FFFFFF;stroke:#000000;stroke-width:5;stroke-miterlimit:10;}
	.st1{fill:none;stroke:#000000;stroke-width:5;stroke-miterlimit:10;}
	.st2{fill:none;}
	.st3{font-family:'MyriadPro-Regular';}
	.st4{font-size:30px;}
	.st5{font-size:58px;}
</style>
<path id="XMLID_1_" class="st0" d="M206.9,633.7c-65.3,0-124.4-26.5-167.2-69.2s-69.1-101.9-69.1-167.2S-3,273,39.8,230.2
	S141.7,161,207,161s124.3,26.4,167.1,69.2s69.2,101.9,69.2,167.2s-26.5,124.4-69.2,167.2S272.2,633.7,206.9,633.7z"/>
<path id="XMLID_2_" class="st0" d="M85.5,321.4c21,0,40,8.5,53.7,22.2c13.7,13.7,22.2,32.7,22.2,53.7s-8.5,40-22.2,53.7
	s-32.7,22.2-53.7,22.2s-40-8.5-53.7-22.2S9.6,418.3,9.6,397.3s8.5-40,22.2-53.7C45.5,329.9,64.5,321.4,85.5,321.4z"/>
<path id="XMLID_146_" class="st0" d="M282.9,275.9c0,21-8.5,40-22.2,53.7C247,343.3,228,351.8,207,351.8s-40-8.5-53.7-22.2
	c-13.7-13.7-22.2-32.7-22.2-53.7s8.5-40,22.2-53.7C167,208.5,186,200,206.9,200s40,8.5,53.7,22.2
	C274.4,235.9,282.9,254.9,282.9,275.9z"/>
<path id="XMLID_147_" class="st0" d="M328.4,473.3c-21,0-40-8.5-53.7-22.2s-22.2-32.7-22.2-53.7s8.5-40,22.2-53.7
	c13.7-13.7,32.7-22.2,53.7-22.2s40,8.5,53.7,22.2c13.7,13.7,22.2,32.7,22.2,53.7s-8.5,40-22.2,53.7
	C368.3,464.8,349.4,473.3,328.4,473.3z"/>
<path id="XMLID_148_" class="st0" d="M131,518.8c0-21,8.5-40,22.2-53.7s32.7-22.2,53.7-22.2s40,8.5,53.7,22.2s22.2,32.7,22.2,53.7
	c0,21-8.5,40-22.2,53.7c-13.7,13.7-32.7,22.2-53.7,22.2s-40-8.5-53.7-22.2C139.5,558.8,131,539.8,131,518.8z"/>
<polyline id="XMLID_149_" class="st1" points="85.5,321.4 85.5,275.9 131,275.9 "/>
<polyline id="XMLID_150_" class="st1" points="206.9,442.9 206.9,397.3 252.5,397.3 "/>
<line id="XMLID_151_" class="st1" x1="-29.4" y1="397.3" x2="9.6" y2="397.3"/>
<line id="XMLID_152_" class="st1" x1="404.3" y1="397.3" x2="443.3" y2="397.3"/>
<line id="XMLID_153_" class="st1" x1="206.9" y1="633.7" x2="206.9" y2="594.7"/>
<polyline id="XMLID_154_" class="st1" points="153.3,572.5 128.4,591.8 85.5,547.2 85.5,473.3 "/>
<polyline id="XMLID_155_" class="st1" points="260.6,222.2 285.4,202.8 328.4,247.5 328.4,321.4 "/>
<rect id="XMLID_156_" x="316.6" y="148.8" class="st2" width="132" height="29.3"/>
<text id="XMLID_157_" transform="matrix(1 0 0 1 316.5587 170.1397)" class="st3 st4">Rotation 3</text>
<rect id="XMLID_159_" x="-43.1" y="148.8" class="st2" width="132" height="29.3"/>
<text id="XMLID_158_" transform="matrix(1 0 0 1 -43.108 170.1398)" class="st3 st4">Base</text>
<rect x="190" y="255.1" class="st2" width="44" height="46.7"/>
<text transform="matrix(1 0 0 1 190.0002 296.2462)" class="st3 st5">1</text>
<rect x="311" y="377.4" class="st2" width="44" height="46.7"/>
<text transform="matrix(1 0 0 1 311.0002 418.5796)" class="st3 st5">2</text>
<rect x="190" y="498.1" class="st2" width="44" height="46.7"/>
<text transform="matrix(1 0 0 1 190.0002 539.2462)" class="st3 st5">3</text>
<rect x="66.9" y="376.6" class="st2" width="44" height="46.7"/>
<text transform="matrix(1 0 0 1 66.9002 417.7462)" class="st3 st5">0</text>
<rect x="395" y="590.9" class="st2" width="44" height="46.7"/>
<text transform="matrix(1 0 0 1 395.0002 632.0462)" class="st3 st5">4</text>
</svg>
