<?xml version="1.0" encoding="utf-8"?>
<!-- Generator: Adobe Illustrator 19.0.0, SVG Export Plug-In . SVG Version: 6.00 Build 0)  -->
<svg version="1.1" id="Layer_1" xmlns="http://www.w3.org/2000/svg" xmlns:xlink="http://www.w3.org/1999/xlink" x="0px" y="0px"
	 viewBox="-51 140.4 508.5 513.6" style="enable-background:new -51 140.4 508.5 513.6;" xml:space="preserve">
<style type="text/css">
	.st0{fill:#FFFFFF;stroke:#000000;stroke-width:5;stroke-miterlimit:10;}
	.st1{fill:none;stroke:#000000;stroke-width:5;stroke-miterlimit:10;}
	.st2{fill:none;}
	.st3{font-family:'MyriadPro-Regular';}
	.st4{font-size:30px;}
	.st5{font-size:58px;}
</style>
<path id="XMLID_1_" class="st0" d="M-32,399.9c0-65.3,26.5-124.4,69.2-167.2s101.9-69.2,167.2-69.2s124.4,26.5,167.2,69.2
	s69.2,101.9,69.2,167.2s-26.5,124.4-69.2,167.2s-101.9,69.2-167.2,69.2S80,609.8,37.2,567.1S-32,465.2-32,399.9z"/>
<path id="XMLID_2_" class="st0" d="M280.3,278.4c0,21-8.5,40-22.2,53.7c-13.7,13.7-32.7,22.2-53.7,22.2s-40-8.5-53.7-22.2
	c-13.7-13.7-22.2-32.7-22.2-53.7s8.5-40,22.2-53.7s32.7-22.2,53.7-22.2s40,8.5,53.7,22.2S280.3,257.5,280.3,278.4z"/>
<path id="XMLID_146_" class="st0" d="M325.8,475.8c-21,0-40-8.5-53.7-22.2s-22.2-32.7-22.2-53.7s8.5-40,22.2-53.7
	c13.7-13.7,32.7-22.2,53.7-22.2s40,8.5,53.7,22.2c13.7,13.7,22.2,32.7,22.2,53.7s-8.5,40-22.2,53.7S346.8,475.8,325.8,475.8z"/>
<path id="XMLID_147_" class="st0" d="M128.5,521.4c0-21,8.5-40,22.2-53.7s32.7-22.2,53.7-22.2s40,8.5,53.7,22.2s22.2,32.7,22.2,53.7
	s-8.5,40-22.2,53.7s-32.7,22.2-53.7,22.2s-40-8.5-53.7-22.2C137,561.3,128.5,542.3,128.5,521.4z"/>
<path id="XMLID_148_" class="st0" d="M82.9,324c21,0,40,8.5,53.7,22.2c13.7,13.7,22.2,32.7,22.2,53.7s-8.5,40-22.2,53.7
	s-32.7,22.2-53.7,22.2s-40-8.5-53.7-22.2S7,420.9,7,399.9s8.5-40,22.2-53.7C42.9,332.5,62,324,82.9,324z"/>
<polyline id="XMLID_149_" class="st1" points="280.3,278.4 325.8,278.4 325.8,324 "/>
<polyline id="XMLID_150_" class="st1" points="158.9,399.9 204.4,399.9 204.4,445.4 "/>
<line id="XMLID_151_" class="st1" x1="204.4" y1="163.5" x2="204.4" y2="202.5"/>
<line id="XMLID_152_" class="st1" x1="204.4" y1="597.3" x2="204.4" y2="636.3"/>
<line id="XMLID_153_" class="st1" x1="-32" y1="399.9" x2="7" y2="399.9"/>
<polyline id="XMLID_154_" class="st1" points="29.2,346.2 9.9,321.4 54.6,278.4 128.5,278.4 "/>
<polyline id="XMLID_155_" class="st1" points="379.5,453.6 398.9,478.4 354.2,521.4 280.3,521.4 "/>
<rect id="XMLID_156_" x="316.6" y="148.8" class="st2" width="132" height="29.3"/>
<text id="XMLID_157_" transform="matrix(1 0 0 1 316.5587 170.1397)" class="st3 st4">Rotation 0</text>
<rect id="XMLID_159_" x="-43.1" y="148.8" class="st2" width="132" height="29.3"/>
<text id="XMLID_158_" transform="matrix(1 0 0 1 -43.108 170.1398)" class="st3 st4">Base</text>
<rect x="190" y="255.1" class="st2" width="44" height="46.7"/>
<text transform="matrix(1 0 0 1 190.0002 296.2462)" class="st3 st5">0</text>
<rect x="311" y="377.4" class="st2" width="44" height="46.7"/>
<text transform="matrix(1 0 0 1 311.0002 418.5796)" class="st3 st5">1</text>
<rect x="190" y="498.1" class="st2" width="44" height="46.7"/>
<text transform="matrix(1 0 0 1 190.0002 539.2462)" class="st3 st5">2</text>
<rect x="66.9" y="376.6" class="st2" width="44" height="46.7"/>
<text transform="matrix(1 0 0 1 66.9002 417.7462)" class="st3 st5">3</text>
<rect x="395" y="590.9" class="st2" width="44" height="46.7"/>
<text transform="matrix(1 0 0 1 395.0002 632.0462)" class="st3 st5">4</text>
</svg>
