<?xml version="1.0" encoding="utf-8"?>
<!-- Generator: Adobe Illustrator 19.0.0, SVG Export Plug-In . SVG Version: 6.00 Build 0)  -->
<svg version="1.1" id="Layer_1" xmlns="http://www.w3.org/2000/svg" xmlns:xlink="http://www.w3.org/1999/xlink" x="0px" y="0px"
	 viewBox="-228 318 155 158" style="enable-background:new -228 318 155 158;" xml:space="preserve">
<style type="text/css">
	.st0{fill:#FFFFFF;stroke:#000000;stroke-width:5;stroke-miterlimit:10;}
	.st1{fill:none;stroke:#000000;stroke-width:5;stroke-miterlimit:10;}
	.st2{fill:none;}
	.st3{font-family:'MyriadPro-Regular';}
	.st4{font-size:12px;}
</style>
<path id="XMLID_1_" class="st0" d="M-150.5,328c19.2,0,36.6,7.8,49.1,20.4s20.4,30,20.4,49.1s-7.8,36.6-20.4,49.1
	s-29.9,20.4-49.1,20.4s-36.6-7.8-49.1-20.4s-20.4-29.9-20.4-49.1s7.8-36.6,20.4-49.1C-187,335.9-169.7,328-150.5,328z"/>
<polyline id="XMLID_2_" class="st1" points="-150.5,467 -150.5,397.5 -101.4,348.4 "/>
<rect x="-224.3" y="319.4" class="st2" width="47.5" height="11.4"/>
<text transform="matrix(1 0 0 1 -224.25 327.9367)" class="st3 st4">Insert3</text>
<rect x="-123.8" y="319.4" class="st2" width="50.8" height="11.4"/>
<text transform="matrix(1 0 0 1 -123.7835 327.9367)" class="st3 st4">Rotation2</text>
</svg>
