<?xml version="1.0" encoding="utf-8"?>
<!-- Generator: Adobe Illustrator 19.0.0, SVG Export Plug-In . SVG Version: 6.00 Build 0)  -->
<svg version="1.1" id="Layer_1" xmlns="http://www.w3.org/2000/svg" xmlns:xlink="http://www.w3.org/1999/xlink" x="0px" y="0px"
	 viewBox="0 0 508.5 513.6" style="enable-background:new 0 0 508.5 513.6;" xml:space="preserve">
<style type="text/css">
	.st0{fill:#FFFFFF;stroke:#000000;stroke-width:5;stroke-miterlimit:10;}
	.st1{fill:none;stroke:#000000;stroke-width:5;stroke-miterlimit:10;}
	.st2{fill:none;}
	.st3{font-family:'MyriadPro-Regular';}
	.st4{font-size:30px;}
	.st5{fill:#FFFFFF;stroke:#010101;stroke-width:5;stroke-miterlimit:10;}
	.st6{fill:none;stroke:#010101;stroke-width:5;stroke-miterlimit:10;}
</style>
<path id="XMLID_1_" class="st0" d="M19,259.5c0-65.3,26.5-124.4,69.2-167.2s101.9-69.2,167.2-69.2s124.4,26.5,167.2,69.2
	s69.2,101.9,69.2,167.2s-26.5,124.4-69.2,167.2s-101.9,69.2-167.2,69.2S131,469.4,88.2,426.7S19,324.8,19,259.5z"/>
<path id="XMLID_2_" class="st0" d="M331.3,138c0,21-8.5,40-22.2,53.7c-13.7,13.7-32.7,22.2-53.7,22.2s-40-8.5-53.7-22.2
	C188,178,179.5,159,179.5,138s8.5-40,22.2-53.7s32.7-22.2,53.7-22.2s40,8.5,53.7,22.2S331.3,117.1,331.3,138z"/>
<path id="XMLID_146_" class="st0" d="M376.8,335.4c-21,0-40-8.5-53.7-22.2c-13.7-13.7-22.2-32.7-22.2-53.7s8.5-40,22.2-53.7
	c13.7-13.7,32.7-22.2,53.7-22.2c21,0,40,8.5,53.7,22.2c13.7,13.7,22.2,32.7,22.2,53.7s-8.5,40-22.2,53.7
	C416.8,326.9,397.8,335.4,376.8,335.4z"/>
<path id="XMLID_147_" class="st0" d="M179.5,381c0-21,8.5-40,22.2-53.7c13.7-13.7,32.7-22.2,53.7-22.2s40,8.5,53.7,22.2
	c13.7,13.7,22.2,32.7,22.2,53.7s-8.5,40-22.2,53.7c-13.7,13.7-32.7,22.2-53.7,22.2s-40-8.5-53.7-22.2
	C188,420.9,179.5,401.9,179.5,381z"/>
<path id="XMLID_148_" class="st0" d="M133.9,183.6c21,0,40,8.5,53.7,22.2s22.2,32.7,22.2,53.7c0,21-8.5,40-22.2,53.7
	c-13.7,13.7-32.7,22.2-53.7,22.2s-40-8.5-53.7-22.2C66.5,299.5,58,280.5,58,259.5c0-21,8.5-40,22.2-53.7S113,183.6,133.9,183.6z"/>
<polyline id="XMLID_149_" class="st1" points="331.3,138 376.8,138 376.8,183.6 "/>
<polyline id="XMLID_150_" class="st1" points="209.9,259.5 255.4,259.5 255.4,305 "/>
<line id="XMLID_151_" class="st1" x1="255.4" y1="23.1" x2="255.4" y2="62.1"/>
<line id="XMLID_152_" class="st1" x1="255.4" y1="456.9" x2="255.4" y2="495.9"/>
<line id="XMLID_153_" class="st1" x1="19" y1="259.5" x2="58" y2="259.5"/>
<polyline id="XMLID_154_" class="st1" points="80.2,205.8 60.9,181 105.6,138 179.5,138 "/>
<polyline id="XMLID_155_" class="st1" points="430.5,313.2 449.9,338 405.2,381 331.3,381 "/>
<rect id="XMLID_159_" x="7.9" y="8.4" class="st2" width="132" height="29.3"/>
<text id="XMLID_158_" transform="matrix(1 0 0 1 7.892 29.7398)" class="st3 st4">Path 1</text>
<g id="XMLID_161_">
	<circle id="XMLID_163_" class="st5" cx="255.4" cy="138" r="75.9"/>
	<polyline id="XMLID_162_" class="st6" points="255.4,62.1 255.4,138 331.3,138 	"/>
</g>
<g id="XMLID_164_">
	<path id="XMLID_166_" class="st5" d="M376.8,335.4c-21,0-40-8.5-53.6-22.3c-13.7-13.8-22.3-32.7-22.3-53.6s8.5-40,22.3-53.6
		c13.8-13.7,32.7-22.3,53.6-22.3s40,8.5,53.6,22.3c13.7,13.8,22.3,32.8,22.3,53.6s-8.5,40-22.3,53.6
		C416.7,326.8,397.8,335.4,376.8,335.4z"/>
	<polyline id="XMLID_165_" class="st6" points="376.8,183.6 376.8,259.5 430.5,313.1 	"/>
</g>
<g id="XMLID_167_">
	<circle id="XMLID_169_" class="st5" cx="255.4" cy="381" r="75.9"/>
	<polyline id="XMLID_168_" class="st6" points="331.3,381 255.4,381 255.4,456.9 	"/>
</g>
</svg>
