<svg xmlns="http://www.w3.org/2000/svg" viewBox="0 0 250 100" width="250" height="100"><style type="text/css">  
	.st0{fill:none;stroke:#FFFFFF;stroke-width:5;stroke-miterlimit:10;}
	.st1{fill:#FFFFFF;stroke:#FFFFFF;stroke-miterlimit:10;}
	.st2{fill:#FFFFFF;}
	.st3{enable-background:new    ;}
</style><rect width="250" height="100"/><path class="st0" d="M17.6 42.9c0.4-2.3 1.1-4.5 2-6.6s2-4.1 3.2-6c1.2-1.8 2.7-3.6 4.3-5.2s3.3-3.1 5.2-4.3c1.8-1.2 3.9-2.4 6-3.2 2.1-0.9 4.3-1.6 6.6-2s4.6-0.7 7.1-0.7 4.8 0.3 7.1 0.7 4.5 1.1 6.6 2 4.1 2 6 3.2c1.8 1.2 3.6 2.7 5.2 4.3 0.4 0.4 0.8 0.8 1.1 1.2"/><polygon class="st1" points="86.3 42.9 64.5 25.2 76.8 25.5 83.1 14.9 "/><path class="st0" d="M87.1 50c0 2.5-0.3 4.8-0.7 7.1 -0.4 2.3-1.1 4.5-2 6.6s-2 4.1-3.2 6c-1.2 1.8-2.7 3.6-4.3 5.2 -1.6 1.6-3.3 3.1-5.2 4.3 -1.8 1.2-3.9 2.4-6 3.2 -2.1 0.9-4.3 1.6-6.6 2s-4.6 0.7-7.1 0.7 -4.8-0.3-7.1-0.7 -4.5-1.1-6.6-2 -4.1-2-6-3.2c-1.8-1.2-3.6-2.7-5.2-4.3 -1.6-1.6-3.1-3.3-4.3-5.2 -0.9-1.3-1.8-2.7-2.5-4.2"/><path class="st2" d="M16.8 50c4.6 6.6 11.4 14.4 17.6 18.7l-13.2-1.3 -10.9 7.4C13.7 68 16.1 57.9 16.8 50z"/><g class="st3"><path class="st2" d="M130.6 67.7c0 0.2 0 0.4-0.1 0.6s-0.2 0.3-0.5 0.4 -0.6 0.2-1.1 0.2S127.8 69 127 69c-0.7 0-1.2 0-1.6-0.1 -0.4 0-0.7-0.1-1-0.2 -0.2-0.1-0.4-0.3-0.5-0.4s-0.2-0.4-0.2-0.6l-2.8-8.8c-0.3-1-0.7-1.9-1-2.7s-0.7-1.4-1.1-1.9 -0.9-0.9-1.4-1.2 -1.1-0.4-1.8-0.4h-2v15c0 0.2-0.1 0.4-0.2 0.5 -0.1 0.2-0.3 0.3-0.5 0.4s-0.6 0.2-1 0.2c-0.4 0.1-0.9 0.1-1.6 0.1 -0.6 0-1.1 0-1.6-0.1 -0.4-0.1-0.7-0.1-1-0.2s-0.4-0.2-0.5-0.4c-0.1-0.2-0.1-0.3-0.1-0.5V31.8c0-0.9 0.2-1.5 0.5-1.9 0.4-0.4 0.8-0.6 1.4-0.6h8.2c0.8 0 1.5 0 2.1 0.1 0.5 0 1 0.1 1.5 0.2 1.3 0.2 2.4 0.6 3.4 1.2 1 0.5 1.9 1.3 2.6 2.2 0.7 0.9 1.2 1.9 1.6 3.1 0.4 1.2 0.6 2.6 0.6 4.2 0 1.3-0.1 2.5-0.4 3.6 -0.3 1.1-0.7 2.1-1.2 2.9s-1.2 1.6-1.9 2.2c-0.8 0.6-1.6 1.1-2.6 1.5 0.5 0.3 0.9 0.6 1.3 1s0.8 0.9 1.2 1.5c0.4 0.6 0.7 1.2 1 2 0.3 0.7 0.6 1.6 1 2.5l2.7 7.8c0.2 0.8 0.4 1.3 0.5 1.7C130.6 67.2 130.6 67.5 130.6 67.7zM122.4 40.9c0-1.3-0.2-2.4-0.7-3.3 -0.5-0.9-1.2-1.5-2.3-1.9 -0.3-0.1-0.7-0.2-1.1-0.2s-1-0.1-1.7-0.1h-2.9v11.2h3.3c0.9 0 1.7-0.1 2.4-0.4 0.7-0.3 1.3-0.7 1.7-1.2 0.5-0.5 0.8-1.1 1-1.8C122.2 42.5 122.4 41.8 122.4 40.9z"/><path class="st2" d="M156.1 53.8c0 2.3-0.2 4.4-0.7 6.3s-1.2 3.6-2.2 4.9c-1 1.4-2.2 2.5-3.7 3.2 -1.5 0.8-3.2 1.1-5.2 1.1 -1.9 0-3.6-0.3-5.1-1 -1.4-0.7-2.6-1.6-3.6-2.9 -0.9-1.3-1.6-2.9-2.1-4.7 -0.5-1.9-0.7-4-0.7-6.4 0-2.3 0.2-4.4 0.7-6.4 0.5-1.9 1.2-3.6 2.2-4.9 1-1.4 2.2-2.4 3.7-3.2s3.2-1.1 5.2-1.1 3.6 0.3 5.1 1c1.4 0.7 2.6 1.6 3.6 2.9 0.9 1.3 1.6 2.9 2.1 4.7C155.9 49.3 156.1 51.4 156.1 53.8zM149.8 54.1c0-1.3-0.1-2.6-0.3-3.7 -0.2-1.1-0.5-2.1-0.9-2.9 -0.4-0.8-0.9-1.5-1.6-2 -0.7-0.5-1.5-0.7-2.6-0.7 -0.9 0-1.7 0.2-2.4 0.6 -0.7 0.4-1.2 1-1.7 1.8 -0.4 0.8-0.8 1.8-1 2.9 -0.2 1.1-0.3 2.4-0.3 3.9 0 1.3 0.1 2.6 0.3 3.7 0.2 1.1 0.5 2.1 0.9 2.9 0.4 0.8 0.9 1.5 1.6 1.9 0.7 0.5 1.5 0.7 2.5 0.7 0.9 0 1.7-0.2 2.4-0.6s1.2-1 1.7-1.8c0.4-0.8 0.8-1.8 1-2.9C149.7 56.9 149.8 55.6 149.8 54.1z"/><path class="st2" d="M173.9 65c0 0.9 0 1.6-0.1 2.1s-0.2 0.8-0.4 1 -0.4 0.4-0.6 0.5c-0.3 0.2-0.6 0.3-1 0.4s-0.8 0.2-1.2 0.3c-0.4 0.1-0.9 0.1-1.4 0.1 -1.2 0-2.3-0.2-3.2-0.6s-1.6-1-2.2-1.8 -1-1.8-1.3-3c-0.3-1.2-0.4-2.7-0.4-4.3v-14h-2.6c-0.3 0-0.5-0.2-0.7-0.7s-0.2-1.3-0.2-2.4c0-0.6 0-1.1 0.1-1.5 0-0.4 0.1-0.7 0.2-1 0.1-0.2 0.2-0.4 0.3-0.5s0.3-0.2 0.4-0.2h2.6v-6.1c0-0.2 0-0.4 0.1-0.5 0.1-0.2 0.3-0.3 0.5-0.4 0.2-0.1 0.6-0.2 1-0.2 0.4-0.1 0.9-0.1 1.5-0.1s1.1 0 1.5 0.1 0.7 0.1 0.9 0.2c0.2 0.1 0.4 0.2 0.5 0.4s0.1 0.3 0.1 0.5v6.1h4.7c0.2 0 0.3 0.1 0.4 0.2 0.1 0.1 0.2 0.3 0.3 0.5s0.1 0.6 0.2 1c0 0.4 0.1 0.9 0.1 1.5 0 1.1-0.1 1.9-0.2 2.4 -0.2 0.5-0.4 0.7-0.7 0.7h-4.8v12.8c0 1.5 0.2 2.6 0.6 3.3 0.4 0.7 1 1.1 2 1.1 0.3 0 0.6 0 0.9-0.1 0.3-0.1 0.5-0.2 0.7-0.2 0.2-0.1 0.4-0.2 0.5-0.2 0.1-0.1 0.3-0.1 0.4-0.1 0.1 0 0.2 0 0.3 0.1s0.2 0.2 0.2 0.4 0.1 0.5 0.1 0.9C173.8 64 173.9 64.5 173.9 65z"/><path class="st2" d="M196.4 67.8c0 0.3-0.1 0.5-0.2 0.7 -0.2 0.2-0.4 0.3-0.8 0.4 -0.3 0.1-0.9 0.1-1.5 0.1 -0.7 0-1.3 0-1.6-0.1s-0.6-0.2-0.7-0.4c-0.1-0.2-0.2-0.4-0.2-0.7v-2.2c-0.9 1.2-1.9 2.1-3.1 2.8 -1.1 0.7-2.4 1-3.8 1 -1.2 0-2.2-0.2-3.2-0.6s-1.8-0.9-2.5-1.7c-0.7-0.7-1.3-1.7-1.6-2.8s-0.6-2.4-0.6-3.8c0-1.6 0.2-3 0.7-4.1 0.5-1.2 1.2-2.1 2.2-2.9 1-0.8 2.2-1.3 3.7-1.7s3.2-0.5 5.1-0.5h2.1v-1.6c0-0.9-0.1-1.6-0.2-2.2 -0.1-0.6-0.4-1.2-0.7-1.6 -0.3-0.4-0.7-0.7-1.3-0.9 -0.5-0.2-1.2-0.3-2-0.3 -1 0-1.9 0.1-2.7 0.4 -0.8 0.3-1.5 0.6-2.1 0.9 -0.6 0.3-1.1 0.7-1.6 0.9 -0.4 0.3-0.8 0.4-1 0.4s-0.3-0.1-0.5-0.2c-0.1-0.1-0.3-0.3-0.3-0.6 -0.1-0.3-0.2-0.6-0.2-1s-0.1-0.8-0.1-1.3c0-0.6 0-1.1 0.1-1.5s0.2-0.7 0.5-1c0.2-0.3 0.6-0.6 1.2-1 0.6-0.4 1.2-0.7 2-1s1.6-0.6 2.5-0.7c0.9-0.2 1.8-0.3 2.8-0.3 1.7 0 3.2 0.2 4.4 0.6 1.2 0.4 2.2 1.1 3 1.9 0.8 0.9 1.4 2 1.7 3.3 0.4 1.4 0.5 3 0.5 4.9L196.4 67.8 196.4 67.8zM190.3 56.1H188c-1 0-1.8 0.1-2.5 0.3s-1.3 0.5-1.7 0.8 -0.8 0.8-1 1.3 -0.3 1.1-0.3 1.8c0 1.1 0.3 2 0.9 2.7 0.6 0.7 1.4 1 2.4 1 0.9 0 1.7-0.3 2.4-0.8s1.5-1.4 2.2-2.4L190.3 56.1 190.3 56.1z"/><path class="st2" d="M214.9 65c0 0.9 0 1.6-0.1 2.1s-0.2 0.8-0.4 1 -0.4 0.4-0.6 0.5c-0.3 0.2-0.6 0.3-1 0.4s-0.8 0.2-1.2 0.3c-0.4 0.1-0.9 0.1-1.4 0.1 -1.2 0-2.3-0.2-3.2-0.6s-1.6-1-2.2-1.8 -1-1.8-1.3-3c-0.3-1.2-0.4-2.7-0.4-4.3v-14h-2.6c-0.3 0-0.5-0.2-0.7-0.7s-0.2-1.3-0.2-2.4c0-0.6 0-1.1 0.1-1.5 0-0.4 0.1-0.7 0.2-1 0.1-0.2 0.2-0.4 0.3-0.5s0.3-0.2 0.4-0.2h2.6v-6.1c0-0.2 0-0.4 0.1-0.5 0.1-0.2 0.3-0.3 0.5-0.4 0.2-0.1 0.6-0.2 1-0.2 0.4-0.1 0.9-0.1 1.5-0.1s1.1 0 1.5 0.1 0.7 0.1 0.9 0.2c0.2 0.1 0.4 0.2 0.5 0.4s0.1 0.3 0.1 0.5v6.1h4.7c0.2 0 0.3 0.1 0.4 0.2 0.1 0.1 0.2 0.3 0.3 0.5s0.1 0.6 0.2 1c0 0.4 0.1 0.9 0.1 1.5 0 1.1-0.1 1.9-0.2 2.4 -0.2 0.5-0.4 0.7-0.7 0.7h-4.8v12.8c0 1.5 0.2 2.6 0.6 3.3 0.4 0.7 1 1.1 2 1.1 0.3 0 0.6 0 0.9-0.1 0.3-0.1 0.5-0.2 0.7-0.2 0.2-0.1 0.4-0.2 0.5-0.2 0.1-0.1 0.3-0.1 0.4-0.1 0.1 0 0.2 0 0.3 0.1s0.2 0.2 0.2 0.4 0.1 0.5 0.1 0.9C214.9 64 214.9 64.5 214.9 65z"/><path class="st2" d="M238.9 53.3c0 0.9-0.2 1.6-0.5 2.1 -0.3 0.4-0.8 0.7-1.4 0.7h-13.3c0 1.2 0.1 2.2 0.3 3.2 0.2 0.9 0.6 1.8 1 2.4 0.5 0.7 1.1 1.2 1.9 1.5 0.8 0.3 1.7 0.5 2.7 0.5 1.1 0 2-0.1 2.8-0.3s1.5-0.4 2.1-0.6c0.6-0.2 1.1-0.4 1.5-0.6s0.7-0.3 1-0.3c0.1 0 0.3 0 0.4 0.1 0.1 0.1 0.2 0.2 0.2 0.4 0.1 0.2 0.1 0.4 0.1 0.8 0 0.3 0 0.8 0 1.3 0 0.4 0 0.8 0 1.1 0 0.3 0 0.6-0.1 0.8 0 0.2-0.1 0.4-0.1 0.6 -0.1 0.2-0.2 0.3-0.3 0.4s-0.4 0.3-0.9 0.6c-0.5 0.2-1.1 0.5-1.8 0.7s-1.6 0.4-2.5 0.6 -2 0.3-3 0.3c-1.9 0-3.6-0.3-5.1-0.9s-2.7-1.5-3.6-2.8c-1-1.2-1.7-2.8-2.2-4.7s-0.7-4.1-0.7-6.7c0-2.4 0.3-4.6 0.8-6.5s1.2-3.6 2.2-4.9c1-1.4 2.1-2.4 3.5-3.1 1.4-0.7 2.9-1.1 4.7-1.1s3.4 0.3 4.7 1 2.4 1.6 3.2 2.8 1.4 2.6 1.8 4.2c0.4 1.6 0.6 3.4 0.6 5.3L238.9 53.3 238.9 53.3zM232.9 51.1c0-2.2-0.3-3.8-1-5.1 -0.7-1.2-1.9-1.8-3.4-1.8 -0.8 0-1.5 0.2-2 0.5 -0.6 0.4-1.1 0.9-1.4 1.5 -0.4 0.6-0.7 1.4-0.9 2.2s-0.3 1.7-0.4 2.7C223.8 51.1 232.9 51.1 232.9 51.1z"/></g><rect class="st2" width="250" height="2.5"/><rect y="97.5" class="st2" width="250" height="2.5"/><rect class="st2" width="2.5" height="100"/><rect x="247.5" class="st2" width="2.5" height="100"/></svg>