<svg xmlns="http://www.w3.org/2000/svg" viewBox="0 0 250 100" width="250" height="100"><style type="text/css">  
	.st0{fill:none;}
	.st1{enable-background:new    ;}
	.st2{fill:none;stroke:#000000;stroke-width:5;stroke-miterlimit:10;}
</style><rect x="115.7" y="32.8" class="st0" width="137.8" height="57.3"/><g class="st1"><path d="M137.9 56.9c0 2.1-0.3 3.9-0.9 5.5 -0.6 1.6-1.5 2.9-2.5 3.9 -1.1 1-2.3 1.8-3.7 2.4 -1.4 0.5-2.9 0.8-4.5 0.8 -1.1 0-2.1-0.1-3-0.3 -0.9-0.2-1.8-0.5-2.5-0.8 -0.7-0.3-1.3-0.6-1.8-1 -0.5-0.3-0.8-0.7-1-0.9 -0.2-0.3-0.4-0.6-0.5-1.1 -0.1-0.5-0.1-1.2-0.1-2.2 0-0.6 0-1.2 0-1.6 0-0.4 0.1-0.8 0.2-1 0.1-0.3 0.2-0.5 0.3-0.6 0.1-0.1 0.3-0.2 0.4-0.2 0.2 0 0.5 0.2 1 0.5s0.9 0.7 1.6 1.1c0.7 0.4 1.4 0.8 2.3 1.1s1.9 0.5 3.1 0.5c0.8 0 1.5-0.1 2.1-0.4 0.6-0.2 1.1-0.6 1.6-1 0.4-0.4 0.8-1 1-1.6 0.2-0.6 0.3-1.3 0.3-2.1 0-0.9-0.2-1.7-0.6-2.3s-0.9-1.2-1.5-1.7c-0.6-0.5-1.3-1-2.1-1.4 -0.8-0.4-1.6-0.9-2.5-1.4 -0.8-0.5-1.7-1-2.5-1.7 -0.8-0.6-1.5-1.4-2.1-2.2 -0.6-0.9-1.1-1.9-1.5-3.1 -0.4-1.2-0.6-2.6-0.6-4.2 0-1.9 0.3-3.6 0.8-5 0.6-1.4 1.3-2.6 2.3-3.6 1-0.9 2.1-1.7 3.4-2.1 1.3-0.5 2.7-0.7 4.1-0.7 0.7 0 1.5 0.1 2.2 0.2 0.7 0.1 1.4 0.3 2.1 0.6 0.7 0.2 1.2 0.5 1.7 0.8 0.5 0.3 0.8 0.6 1 0.8 0.2 0.2 0.3 0.4 0.3 0.5 0.1 0.1 0.1 0.3 0.1 0.6 0 0.2 0.1 0.5 0.1 0.9 0 0.4 0 0.8 0 1.3 0 0.6 0 1.1 0 1.5 0 0.4-0.1 0.7-0.1 1 -0.1 0.3-0.1 0.5-0.2 0.6s-0.2 0.2-0.4 0.2c-0.2 0-0.5-0.1-0.9-0.4 -0.4-0.3-0.9-0.6-1.4-0.9 -0.6-0.3-1.2-0.6-2-0.9 -0.8-0.3-1.6-0.4-2.5-0.4 -0.7 0-1.3 0.1-1.8 0.3 -0.5 0.2-1 0.5-1.3 0.9s-0.6 0.8-0.8 1.4c-0.2 0.5-0.3 1.1-0.3 1.7 0 0.9 0.2 1.6 0.6 2.3 0.4 0.6 0.9 1.2 1.5 1.7s1.4 1 2.2 1.4c0.8 0.4 1.6 0.9 2.5 1.4 0.8 0.5 1.7 1 2.5 1.7 0.8 0.6 1.5 1.4 2.2 2.2 0.6 0.9 1.1 1.9 1.5 3.1S137.9 55.3 137.9 56.9z"/><path d="M175.3 40.4c0 0.2 0 0.5-0.1 0.8 0 0.3-0.1 0.8-0.3 1.4l-5.8 24.6c-0.1 0.3-0.2 0.6-0.3 0.8 -0.1 0.2-0.3 0.4-0.6 0.5 -0.3 0.1-0.7 0.2-1.1 0.2 -0.5 0-1.1 0.1-1.9 0.1 -0.8 0-1.4 0-2-0.1 -0.5-0.1-0.9-0.1-1.2-0.3 -0.3-0.1-0.5-0.3-0.6-0.5 -0.1-0.2-0.2-0.5-0.3-0.8l-3.7-16.5 0-0.3 0 0.3L154 67.3c-0.1 0.3-0.2 0.6-0.3 0.8 -0.1 0.2-0.3 0.4-0.6 0.5s-0.7 0.2-1.2 0.2c-0.5 0-1.2 0.1-2 0.1 -0.8 0-1.5 0-2-0.1 -0.5-0.1-0.9-0.1-1.2-0.3 -0.3-0.1-0.5-0.3-0.6-0.5 -0.1-0.2-0.2-0.5-0.3-0.8l-5.8-24.6c-0.1-0.6-0.2-1.1-0.3-1.4 0-0.3-0.1-0.6-0.1-0.8 0-0.2 0-0.4 0.1-0.5 0.1-0.2 0.3-0.3 0.5-0.4 0.2-0.1 0.6-0.2 1-0.2 0.4 0 0.9-0.1 1.5-0.1 0.7 0 1.2 0 1.6 0.1 0.4 0 0.7 0.1 1 0.2 0.2 0.1 0.4 0.2 0.5 0.4 0.1 0.2 0.2 0.4 0.2 0.6l4.3 20 0 0.4 0-0.4 4.1-20c0-0.2 0.1-0.5 0.2-0.6 0.1-0.2 0.3-0.3 0.5-0.4 0.2-0.1 0.5-0.2 0.9-0.2 0.4 0 0.9-0.1 1.5-0.1 0.6 0 1.1 0 1.5 0.1 0.4 0.1 0.7 0.1 0.9 0.2 0.2 0.1 0.4 0.2 0.5 0.4 0.1 0.2 0.2 0.3 0.2 0.5l4.3 20.1 0.1 0.3 0-0.4 4.2-20c0-0.2 0.1-0.5 0.2-0.6 0.1-0.2 0.3-0.3 0.5-0.4 0.2-0.1 0.5-0.2 0.9-0.2 0.4 0 0.9-0.1 1.5-0.1 0.6 0 1.1 0 1.5 0.1 0.4 0 0.7 0.1 0.9 0.2 0.2 0.1 0.4 0.2 0.5 0.4C175.3 40 175.3 40.2 175.3 40.4z"/><path d="M197.3 67.8c0 0.3-0.1 0.5-0.2 0.7 -0.2 0.2-0.4 0.3-0.8 0.4 -0.3 0.1-0.9 0.1-1.5 0.1 -0.7 0-1.3 0-1.6-0.1 -0.3-0.1-0.6-0.2-0.7-0.4 -0.1-0.2-0.2-0.4-0.2-0.7v-2.2c-0.9 1.2-1.9 2.1-3.1 2.8 -1.1 0.7-2.4 1-3.8 1 -1.2 0-2.2-0.2-3.2-0.6 -1-0.4-1.8-0.9-2.5-1.7 -0.7-0.7-1.3-1.7-1.6-2.8s-0.6-2.4-0.6-3.8c0-1.6 0.2-3 0.7-4.1 0.5-1.2 1.2-2.1 2.2-2.9 1-0.8 2.2-1.3 3.7-1.7s3.2-0.5 5.1-0.5h2.1v-1.6c0-0.9-0.1-1.6-0.2-2.2 -0.1-0.6-0.4-1.2-0.7-1.6 -0.3-0.4-0.7-0.7-1.3-0.9 -0.5-0.2-1.2-0.3-2-0.3 -1 0-1.9 0.1-2.7 0.4 -0.8 0.3-1.5 0.6-2.1 0.9 -0.6 0.3-1.1 0.7-1.6 0.9 -0.4 0.3-0.8 0.4-1 0.4 -0.2 0-0.3-0.1-0.5-0.2 -0.1-0.1-0.3-0.3-0.3-0.6 -0.1-0.3-0.2-0.6-0.2-1 0-0.4-0.1-0.8-0.1-1.3 0-0.6 0-1.1 0.1-1.5 0.1-0.4 0.2-0.7 0.5-1 0.2-0.3 0.6-0.6 1.2-1 0.6-0.4 1.2-0.7 2-1 0.8-0.3 1.6-0.6 2.5-0.7 0.9-0.2 1.8-0.3 2.8-0.3 1.7 0 3.2 0.2 4.4 0.6 1.2 0.4 2.2 1.1 3 1.9 0.8 0.9 1.4 2 1.7 3.3 0.4 1.4 0.5 3 0.5 4.9V67.8zM191.2 56.1h-2.3c-1 0-1.8 0.1-2.5 0.3 -0.7 0.2-1.3 0.5-1.7 0.8s-0.8 0.8-1 1.3c-0.2 0.5-0.3 1.1-0.3 1.8 0 1.1 0.3 2 0.9 2.7 0.6 0.7 1.4 1 2.4 1 0.9 0 1.7-0.3 2.4-0.8 0.7-0.5 1.5-1.4 2.2-2.4V56.1z"/><path d="M225.3 53.7c0 2.4-0.2 4.6-0.6 6.5 -0.4 1.9-1 3.6-1.8 5 -0.8 1.4-1.8 2.4-3 3.1 -1.2 0.7-2.5 1.1-4.1 1.1 -0.6 0-1.2-0.1-1.7-0.2 -0.5-0.2-1-0.4-1.5-0.7 -0.5-0.3-1-0.7-1.5-1.2 -0.5-0.5-1-1-1.5-1.6v12.8c0 0.2 0 0.4-0.1 0.5 -0.1 0.2-0.3 0.3-0.5 0.4 -0.2 0.1-0.5 0.2-0.9 0.3s-0.9 0.1-1.5 0.1c-0.6 0-1.1 0-1.5-0.1s-0.7-0.1-0.9-0.3c-0.2-0.1-0.4-0.2-0.5-0.4 -0.1-0.2-0.1-0.3-0.1-0.5v-38c0-0.2 0-0.4 0.1-0.5 0.1-0.2 0.2-0.3 0.4-0.4 0.2-0.1 0.5-0.2 0.8-0.2 0.3-0.1 0.8-0.1 1.3-0.1 0.5 0 0.9 0 1.2 0.1 0.3 0.1 0.6 0.1 0.8 0.2 0.2 0.1 0.3 0.2 0.4 0.4 0.1 0.2 0.1 0.3 0.1 0.5v3.2c0.6-0.8 1.3-1.5 1.9-2.2 0.6-0.6 1.2-1.1 1.9-1.6s1.3-0.7 2-0.9c0.7-0.2 1.4-0.3 2.2-0.3 1.6 0 3 0.4 4.1 1.2s2 1.9 2.7 3.2c0.7 1.4 1.2 3 1.6 4.8C225.2 49.7 225.3 51.6 225.3 53.7zM218.9 54.2c0-1.2-0.1-2.3-0.2-3.3 -0.1-1.1-0.4-2-0.7-2.9 -0.3-0.8-0.8-1.5-1.3-2 -0.5-0.5-1.2-0.7-2-0.7 -0.4 0-0.8 0.1-1.2 0.2 -0.4 0.2-0.8 0.4-1.2 0.7 -0.4 0.3-0.8 0.8-1.3 1.3s-0.9 1.2-1.4 2v9c0.9 1.4 1.7 2.4 2.5 3.2 0.8 0.7 1.6 1.1 2.4 1.1 0.8 0 1.5-0.3 2-0.8 0.6-0.5 1-1.2 1.4-2 0.4-0.8 0.6-1.8 0.8-2.8C218.8 56.3 218.9 55.3 218.9 54.2z"/></g><rect width="250" height="2.5"/><rect y="97.5" width="250" height="2.5"/><rect width="2.5" height="100"/><rect x="247.5" width="2.5" height="100"/><line class="st2" x1="26.5" y1="36" x2="78.4" y2="36"/><path d="M96.5 36c-8.5 3.2-19.1 8.6-25.6 14.3L76 36l-5.2-14.3C77.4 27.4 88 32.8 96.5 36z"/><line class="st2" x1="44.6" y1="64" x2="96.5" y2="64"/><path d="M26.5 64c8.5 3.2 19.1 8.6 25.6 14.3L47 64l5.2-14.3C45.6 55.5 35 60.9 26.5 64z"/></svg>